<?xml version="1.0" encoding="iso-8859-1"?>
<!-- Uploaded to: SVG Repo, www.svgrepo.com, Generator: SVG Repo Mixer Tools -->
<!DOCTYPE svg PUBLIC "-//W3C//DTD SVG 1.1//EN" "http://www.w3.org/Graphics/SVG/1.1/DTD/svg11.dtd">
<svg fill="#000000" version="1.1" id="Capa_1" xmlns="http://www.w3.org/2000/svg" xmlns:xlink="http://www.w3.org/1999/xlink" 
	 width="800px" height="800px" viewBox="0 0 600.699 600.699"
	 xml:space="preserve">
<g>
	<g>
		<g>
			<path d="M542.061,83.223H58.64c-32.059,0-58.14,26.082-58.14,58.14v317.973c0,32.059,26.082,58.141,58.14,58.141h483.42
				c32.059,0,58.139-26.082,58.139-58.141V141.363C600.199,109.304,574.119,83.223,542.061,83.223z M557.359,459.336
				c0,8.451-6.85,15.301-15.299,15.301H58.64c-8.45,0-15.3-6.85-15.3-15.301V141.363c0-8.451,6.85-15.3,15.3-15.3h483.42
				c8.449,0,15.299,6.849,15.299,15.3V459.336z"/>
			<path d="M542.061,517.977H58.64C26.306,517.977,0,491.671,0,459.336V141.363c0-32.334,26.306-58.64,58.64-58.64h483.42
				c32.333,0,58.639,26.306,58.639,58.64v317.973C600.699,491.671,574.394,517.977,542.061,517.977z M58.64,83.723
				C26.857,83.723,1,109.58,1,141.363v317.973c0,31.783,25.857,57.641,57.64,57.641h483.42c31.782,0,57.639-25.857,57.639-57.641
				V141.363c0-31.783-25.856-57.64-57.639-57.64H58.64z M542.061,475.137H58.64c-8.712,0-15.8-7.088-15.8-15.801V141.363
				c0-8.712,7.088-15.8,15.8-15.8h483.42c8.712,0,15.799,7.088,15.799,15.8v317.973
				C557.859,468.049,550.772,475.137,542.061,475.137z M58.64,126.563c-8.161,0-14.8,6.639-14.8,14.8v317.973
				c0,8.161,6.639,14.801,14.8,14.801h483.42c8.16,0,14.799-6.64,14.799-14.801V141.363c0-8.161-6.639-14.8-14.799-14.8H58.64z"/>
		</g>
		<g>
			<path d="M455.209,157.231c-33.867,0-61.42,27.553-61.42,61.421c0,33.868,27.553,61.421,61.42,61.421s61.422-27.553,61.422-61.421
				S489.076,157.231,455.209,157.231z M455.209,237.233c-10.262,0-18.58-8.319-18.58-18.581c0-10.262,8.318-18.581,18.58-18.581
				s18.582,8.319,18.582,18.581S465.471,237.233,455.209,237.233z"/>
			<path d="M455.209,280.573c-34.143,0-61.92-27.778-61.92-61.921c0-34.143,27.777-61.921,61.92-61.921
				c34.144,0,61.922,27.778,61.922,61.921C517.131,252.795,489.353,280.573,455.209,280.573z M455.209,157.731
				c-33.592,0-60.92,27.329-60.92,60.921c0,33.592,27.328,60.921,60.92,60.921c33.593,0,60.922-27.329,60.922-60.921
				C516.131,185.06,488.802,157.731,455.209,157.731z M455.209,237.733c-10.521,0-19.08-8.56-19.08-19.081
				c0-10.521,8.56-19.081,19.08-19.081c10.521,0,19.082,8.56,19.082,19.081C474.291,229.173,465.73,237.733,455.209,237.733z
				 M455.209,200.571c-9.97,0-18.08,8.111-18.08,18.081s8.11,18.081,18.08,18.081c9.971,0,18.082-8.111,18.082-18.081
				S465.18,200.571,455.209,200.571z"/>
		</g>
		<g>
			<path d="M383.445,312.971c-5.975-5.975-15.662-5.975-21.637,0l-45.223,45.223l-81.531-81.528c-5.975-5.976-15.663-5.976-21.637,0
				L84.204,405.877c-5.975,5.977-5.975,15.662,0,21.639l8.656,8.654c5.975,5.975,15.662,5.975,21.637,0l98.921-98.922
				c5.975-5.975,15.662-5.975,21.637,0l98.921,98.922c5.975,5.977,15.662,5.977,21.637,0l8.656-8.654
				c5.975-5.977,5.975-15.664,0-21.639l-17.393-17.391l25.75-25.75l74.271,74.273c5.975,5.975,15.662,5.975,21.637,0l8.656-8.656
				c5.975-5.975,5.975-15.664,0-21.637L383.445,312.971z"/>
			<path d="M457.717,441.991c-4.221,0-8.188-1.644-11.172-4.628l-73.918-73.92l-25.043,25.043l17.039,17.037
				c6.16,6.16,6.16,16.184,0,22.346l-8.656,8.654c-2.984,2.985-6.951,4.629-11.172,4.629s-8.188-1.644-11.172-4.629l-98.921-98.922
				c-2.795-2.795-6.512-4.334-10.465-4.334s-7.669,1.539-10.465,4.334l-98.921,98.922c-2.984,2.984-6.952,4.628-11.172,4.628
				c-4.22,0-8.188-1.644-11.172-4.628l-8.656-8.654c-6.159-6.161-6.159-16.185,0-22.346l129.214-129.212
				c2.984-2.984,6.952-4.628,11.172-4.628s8.188,1.644,11.172,4.628l81.177,81.175l44.869-44.869
				c2.984-2.984,6.951-4.627,11.172-4.627s8.188,1.643,11.172,4.627l93.746,93.746c2.984,2.983,4.628,6.95,4.628,11.171
				s-1.644,8.188-4.628,11.173l-8.656,8.656C465.904,440.348,461.938,441.991,457.717,441.991z M372.627,362.029l74.625,74.627
				c2.795,2.795,6.512,4.335,10.465,4.335s7.67-1.54,10.465-4.335l8.656-8.656c2.795-2.795,4.335-6.512,4.335-10.466
				c0-3.953-1.54-7.67-4.335-10.464l-93.746-93.746c-2.795-2.795-6.512-4.334-10.465-4.334s-7.67,1.539-10.465,4.334L316.586,358.9
				l-81.884-81.882c-2.795-2.795-6.512-4.335-10.465-4.335s-7.669,1.54-10.465,4.335L84.557,406.23
				c-5.769,5.771-5.769,15.161,0,20.932l8.656,8.654c2.795,2.795,6.512,4.335,10.465,4.335c3.953,0,7.669-1.54,10.465-4.335
				l98.921-98.922c2.984-2.984,6.952-4.627,11.172-4.627s8.188,1.643,11.172,4.627l98.921,98.922
				c2.795,2.796,6.512,4.336,10.465,4.336s7.67-1.54,10.465-4.336l8.656-8.654c5.77-5.771,5.77-15.162,0-20.932l-17.746-17.744
				L372.627,362.029z"/>
		</g>
	</g>
</g>
</svg>